<?xml version="1.0" encoding="UTF-8" standalone="no"?>
<!DOCTYPE svg PUBLIC "-//W3C//DTD SVG 1.1//EN"
 "http://www.w3.org/Graphics/SVG/1.1/DTD/svg11.dtd">
<!-- Generated by graphviz version 2.50.0 (20220216.1147)
 -->
<!-- Title: flowchart Pages: 1 -->
<svg width="882pt" height="1080pt"
 viewBox="0.00 0.00 881.62 1080.00" xmlns="http://www.w3.org/2000/svg" xmlns:xlink="http://www.w3.org/1999/xlink">
<g id="graph0" class="graph" transform="scale(0.48 0.48) rotate(0) translate(4 2258)">
<title>flowchart</title>
<polygon fill="white" stroke="transparent" points="-4,4 -4,-2258 1842.5,-2258 1842.5,4 -4,4"/>
<!-- t0 -->
<g id="node1" class="node">
<title>t0</title>
<polygon fill="none" stroke="black" points="1353,-2179 1350,-2183 1329,-2183 1326,-2179 1011,-2179 1011,-2126 1353,-2126 1353,-2179"/>
<text text-anchor="middle" x="1182" y="-2163.8" font-family="Times,serif" font-size="14.00">number&#45;display&#45;annotated.acore</text>
<text text-anchor="middle" x="1182" y="-2148.8" font-family="Times,serif" font-size="14.00">WWfile: 102766750_fb131&#45;0&#45;2692_number_display.7c</text>
<text text-anchor="middle" x="1182" y="-2133.8" font-family="Times,serif" font-size="14.00">Notation: Octal</text>
</g>
<!-- b1 -->
<g id="node2" class="node">
<title>b1</title>
<polygon fill="none" stroke="Green" points="1777,-2254 1375,-2254 1371,-2250 1371,-2051 1773,-2051 1777,-2055 1777,-2254"/>
<polyline fill="none" stroke="Green" points="1773,-2250 1371,-2250 "/>
<polyline fill="none" stroke="Green" points="1773,-2250 1773,-2051 "/>
<polyline fill="none" stroke="Green" points="1773,-2250 1777,-2254 "/>
<text text-anchor="middle" x="1574" y="-2238.8" font-family="Times,serif" font-size="14.00">b1:i0040_Start(12w)</text>
<text text-anchor="middle" x="1574" y="-2223.8" font-family="Times,serif" font-size="14.00">@0o0040(i0040): CA 0o0200(r0200) ;load constant 0o12 into AC&#13;</text>
<text text-anchor="middle" x="1574" y="-2208.8" font-family="Times,serif" font-size="14.00">@0o0041(r0041): TS 0o0002(i0002) ;Store it in a FF Reg(??)&#13;</text>
<text text-anchor="middle" x="1574" y="-2193.8" font-family="Times,serif" font-size="14.00">@0o0042 &#160;&#160;&#160;: CA 0o0201(r0201) ;load constant 0o140510 into AC&#13;</text>
<text text-anchor="middle" x="1574" y="-2178.8" font-family="Times,serif" font-size="14.00">@0o0043 &#160;&#160;&#160;: TS 0o0003(w0003) ;transfer to storage (FF reg 03?)&#13;</text>
<text text-anchor="middle" x="1574" y="-2163.8" font-family="Times,serif" font-size="14.00">@0o0044 &#160;&#160;&#160;: CA 0o0202(r0202) ;load constant 0o310 into AC&#13;</text>
<text text-anchor="middle" x="1574" y="-2148.8" font-family="Times,serif" font-size="14.00">@0o0045 &#160;&#160;&#160;: TS 0o0600(u0600) ;transfer to storage&#13;</text>
<text text-anchor="middle" x="1574" y="-2133.8" font-family="Times,serif" font-size="14.00">@0o0046 &#160;&#160;&#160;: CA 0o0203(r0203) ;load constant 0o226 into AC&#13;</text>
<text text-anchor="middle" x="1574" y="-2118.8" font-family="Times,serif" font-size="14.00">@0o0047 &#160;&#160;&#160;: TS 0o0601(u0601) ;store in @0o601&#13;</text>
<text text-anchor="middle" x="1574" y="-2103.8" font-family="Times,serif" font-size="14.00">@0o0050 &#160;&#160;&#160;: CA 0o0000(w0000) ;clear AC&#13;</text>
<text text-anchor="middle" x="1574" y="-2088.8" font-family="Times,serif" font-size="14.00">@0o0051 &#160;&#160;&#160;: TS 0o0602(u0602) ;store 0 in @0o602&#13;</text>
<text text-anchor="middle" x="1574" y="-2073.8" font-family="Times,serif" font-size="14.00">@0o0052 &#160;&#160;&#160;: CS 0o0601(u0601) ;Clear and subtract&#13;</text>
<text text-anchor="middle" x="1574" y="-2058.8" font-family="Times,serif" font-size="14.00">@0o0053 &#160;&#160;&#160;: TS 0o0505(u0505) ;store &#45;0o226 into u505&#13;</text>
</g>
<!-- b2 -->
<g id="node3" class="node">
<title>b2</title>
<polygon fill="none" stroke="black" points="1746.5,-2000 1405.5,-2000 1401.5,-1996 1401.5,-1947 1742.5,-1947 1746.5,-1951 1746.5,-2000"/>
<polyline fill="none" stroke="black" points="1742.5,-1996 1401.5,-1996 "/>
<polyline fill="none" stroke="black" points="1742.5,-1996 1742.5,-1947 "/>
<polyline fill="none" stroke="black" points="1742.5,-1996 1746.5,-2000 "/>
<text text-anchor="middle" x="1574" y="-1984.8" font-family="Times,serif" font-size="14.00">b2:i0054(2w)</text>
<text text-anchor="middle" x="1574" y="-1969.8" font-family="Times,serif" font-size="14.00">@0o0054(i0054): CS 0o0600(u0600) ;clear and subtract&#13;</text>
<text text-anchor="middle" x="1574" y="-1954.8" font-family="Times,serif" font-size="14.00">@0o0055 &#160;&#160;&#160;: TS 0o0504(u0504) ;transfer to storage&#13;</text>
</g>
<!-- b1&#45;&gt;b2 -->
<g id="edge1" class="edge">
<title>b1&#45;&gt;b2</title>
<path fill="none" stroke="Black" d="M1574,-2050.85C1574,-2036.28 1574,-2022.16 1574,-2010.11"/>
<polygon fill="Black" stroke="Black" points="1577.5,-2010.09 1574,-2000.09 1570.5,-2010.09 1577.5,-2010.09"/>
<text text-anchor="middle" x="1582" y="-2021.8" font-family="Times,serif" font-size="14.00">x1</text>
</g>
<!-- b3 -->
<g id="node4" class="node">
<title>b3</title>
<polygon fill="none" stroke="black" points="1504,-1896 1182,-1896 1178,-1892 1178,-1828 1500,-1828 1504,-1832 1504,-1896"/>
<polyline fill="none" stroke="black" points="1500,-1892 1178,-1892 "/>
<polyline fill="none" stroke="black" points="1500,-1892 1500,-1828 "/>
<polyline fill="none" stroke="black" points="1500,-1892 1504,-1896 "/>
<text text-anchor="middle" x="1341" y="-1880.8" font-family="Times,serif" font-size="14.00">b3:i0056(3w)</text>
<text text-anchor="middle" x="1341" y="-1865.8" font-family="Times,serif" font-size="14.00">@0o0056(i0056): CA 0o0003(w0003) ;clear and add&#13;</text>
<text text-anchor="middle" x="1341" y="-1850.8" font-family="Times,serif" font-size="14.00">@0o0057 &#160;&#160;&#160;: TS 0o0503(u0503) ;transfer to storage&#13;</text>
<text text-anchor="middle" x="1341" y="-1835.8" font-family="Times,serif" font-size="14.00">@0o0060 &#160;&#160;&#160;: CA 0o0253(r0253) ;clear and add&#13;</text>
</g>
<!-- b2&#45;&gt;b3 -->
<g id="edge2" class="edge">
<title>b2&#45;&gt;b3</title>
<path fill="none" stroke="Black" d="M1519.67,-1946.97C1490.17,-1933.1 1453.15,-1915.7 1420.46,-1900.34"/>
<polygon fill="Black" stroke="Black" points="1421.91,-1897.16 1411.37,-1896.07 1418.93,-1903.49 1421.91,-1897.16"/>
<text text-anchor="middle" x="1486" y="-1917.8" font-family="Times,serif" font-size="14.00">x2</text>
</g>
<!-- b4 -->
<g id="node5" class="node">
<title>b4</title>
<polygon fill="none" stroke="black" points="1158,-1777 626,-1777 622,-1773 622,-1694 1154,-1694 1158,-1698 1158,-1777"/>
<polyline fill="none" stroke="black" points="1154,-1773 622,-1773 "/>
<polyline fill="none" stroke="black" points="1154,-1773 1154,-1694 "/>
<polyline fill="none" stroke="black" points="1154,-1773 1158,-1777 "/>
<text text-anchor="middle" x="890" y="-1761.8" font-family="Times,serif" font-size="14.00">b4:i0061(4w)</text>
<text text-anchor="middle" x="890" y="-1746.8" font-family="Times,serif" font-size="14.00">@0o0061(i0061): TS 0o0506(chr_ypos) ;Transfer to Storage&#13;</text>
<text text-anchor="middle" x="890" y="-1731.8" font-family="Times,serif" font-size="14.00">@0o0062 &#160;&#160;&#160;: CA 0o0503(u0503) ;clear and add&#13;</text>
<text text-anchor="middle" x="890" y="-1716.8" font-family="Times,serif" font-size="14.00">@0o0063 &#160;&#160;&#160;: SU 0o0000(w0000) ;subtract zero, i.e., prepare to branch on +0 or negative.&#13;</text>
<text text-anchor="middle" x="890" y="-1701.8" font-family="Times,serif" font-size="14.00">@0o0064 &#160;&#160;&#160;: CP 0o0254(i0254) ;conditional program&#13;</text>
</g>
<!-- b3&#45;&gt;b4 -->
<g id="edge3" class="edge">
<title>b3&#45;&gt;b4</title>
<path fill="none" stroke="Blue" d="M1221.32,-1827.96C1167.79,-1813.19 1103.97,-1795.57 1046.7,-1779.76"/>
<polygon fill="Blue" stroke="Blue" points="1047.4,-1776.32 1036.83,-1777.03 1045.54,-1783.07 1047.4,-1776.32"/>
<text text-anchor="middle" x="1170.5" y="-1798.8" font-family="Times,serif" font-size="14.00">x255</text>
</g>
<!-- b5 -->
<g id="node6" class="node">
<title>b5</title>
<polygon fill="none" stroke="black" points="642.5,-1572 327.5,-1572 323.5,-1568 323.5,-1519 638.5,-1519 642.5,-1523 642.5,-1572"/>
<polyline fill="none" stroke="black" points="638.5,-1568 323.5,-1568 "/>
<polyline fill="none" stroke="black" points="638.5,-1568 638.5,-1519 "/>
<polyline fill="none" stroke="black" points="638.5,-1568 642.5,-1572 "/>
<text text-anchor="middle" x="483" y="-1556.8" font-family="Times,serif" font-size="14.00">b5:cycle left and hold(2w)</text>
<text text-anchor="middle" x="483" y="-1541.8" font-family="Times,serif" font-size="14.00">@0o0065(r0065): CL 0o1033 &#160;&#160;&#160;&#160;;&#13;</text>
<text text-anchor="middle" x="483" y="-1526.8" font-family="Times,serif" font-size="14.00">@0o0066 &#160;&#160;&#160;: TS 0o0503(u0503) ;transfer to storage&#13;</text>
</g>
<!-- b4&#45;&gt;b5 -->
<g id="edge5" class="edge">
<title>b4&#45;&gt;b5</title>
<path fill="none" stroke="Blue" d="M643.18,-1693.86C607.87,-1681.23 573.56,-1664.68 544,-1643 522.79,-1627.45 507.18,-1602.09 497.07,-1581.28"/>
<polygon fill="Blue" stroke="Blue" points="500.18,-1579.68 492.8,-1572.08 493.83,-1582.63 500.18,-1579.68"/>
<text text-anchor="middle" x="613.5" y="-1664.8" font-family="Times,serif" font-size="14.00">x763</text>
</g>
<!-- b20 -->
<g id="node21" class="node">
<title>b20</title>
<polygon fill="none" stroke="black" points="884.5,-1643 557.5,-1643 553.5,-1639 553.5,-1590 880.5,-1590 884.5,-1594 884.5,-1643"/>
<polyline fill="none" stroke="black" points="880.5,-1639 553.5,-1639 "/>
<polyline fill="none" stroke="black" points="880.5,-1639 880.5,-1590 "/>
<polyline fill="none" stroke="black" points="880.5,-1639 884.5,-1643 "/>
<text text-anchor="middle" x="719" y="-1627.8" font-family="Times,serif" font-size="14.00">b20:difference of magnitudes(2w)</text>
<text text-anchor="middle" x="719" y="-1612.8" font-family="Times,serif" font-size="14.00">@0o0254(i0254): DM 0o0000(w0000) ;&#13;</text>
<text text-anchor="middle" x="719" y="-1597.8" font-family="Times,serif" font-size="14.00">@0o0255 &#160;&#160;&#160;: CP 0o0153(i0153) ;conditional program&#13;</text>
</g>
<!-- b4&#45;&gt;b20 -->
<g id="edge4" class="edge">
<title>b4&#45;&gt;b20</title>
<path fill="none" stroke="Blue" d="M830.67,-1693.91C809.06,-1679.12 784.99,-1662.65 764.74,-1648.8"/>
<polygon fill="Blue" stroke="Blue" points="766.54,-1645.79 756.32,-1643.03 762.59,-1651.57 766.54,-1645.79"/>
<text text-anchor="middle" x="819.5" y="-1664.8" font-family="Times,serif" font-size="14.00">x509</text>
</g>
<!-- b6 -->
<g id="node7" class="node">
<title>b6</title>
<polygon fill="none" stroke="black" points="805,-1337 135,-1337 131,-1333 131,-1149 801,-1149 805,-1153 805,-1337"/>
<polyline fill="none" stroke="black" points="801,-1333 131,-1333 "/>
<polyline fill="none" stroke="black" points="801,-1333 801,-1149 "/>
<polyline fill="none" stroke="black" points="801,-1333 805,-1337 "/>
<text text-anchor="middle" x="468" y="-1321.8" font-family="Times,serif" font-size="14.00">b6:exchange(11w)</text>
<text text-anchor="middle" x="468" y="-1306.8" font-family="Times,serif" font-size="14.00">@0o0067(i0067): EX 0o0000(w0000) ;&#13;</text>
<text text-anchor="middle" x="468" y="-1291.8" font-family="Times,serif" font-size="14.00">@0o0070 &#160;&#160;&#160;: SF 0o0117(w0117) ;scale factor&#13;</text>
<text text-anchor="middle" x="468" y="-1276.8" font-family="Times,serif" font-size="14.00">@0o0071 &#160;&#160;&#160;: TS 0o0500(u0500) ;&#45;&#45; and store the resulting scaled number in u0500&#13;</text>
<text text-anchor="middle" x="468" y="-1261.8" font-family="Times,serif" font-size="14.00">@0o0072 &#160;&#160;&#160;: CA 0o0002(i0002) ;load a constant 0o12 from a FF reg&#13;</text>
<text text-anchor="middle" x="468" y="-1246.8" font-family="Times,serif" font-size="14.00">@0o0073 &#160;&#160;&#160;: TS 0o0501(chr_cnt) ;store an initial &#39;character count&#39; for the next row of chars&#13;</text>
<text text-anchor="middle" x="468" y="-1231.8" font-family="Times,serif" font-size="14.00">@0o0074 &#160;&#160;&#160;: CA 0o0252(r0252) ;load a constant = instruction &#160;&#39;slh 0o024&#39;&#13;</text>
<text text-anchor="middle" x="468" y="-1216.8" font-family="Times,serif" font-size="14.00">@0o0075 &#160;&#160;&#160;: SU 0o0117(w0117) ;this subtracts 0o24 from the shift count calulated in @0o70&#13;</text>
<text text-anchor="middle" x="468" y="-1201.8" font-family="Times,serif" font-size="14.00">@0o0076 &#160;&#160;&#160;: TD 0o0117(w0117) ;transfer digits &#45;&#45; store the result back on top of that SLH shift instruction @117&#13;</text>
<text text-anchor="middle" x="468" y="-1186.8" font-family="Times,serif" font-size="14.00">@0o0077 &#160;&#160;&#160;: TD 0o0114(w0114) ;transfer digits &#45; save the same result on top of an SRH&#13;</text>
<text text-anchor="middle" x="468" y="-1171.8" font-family="Times,serif" font-size="14.00">@0o0100 &#160;&#160;&#160;: CS 0o0610(r0610) ;clear and subtract&#13;</text>
<text text-anchor="middle" x="468" y="-1156.8" font-family="Times,serif" font-size="14.00">@0o0101 &#160;&#160;&#160;: TS 0o0507(chr_xpos) ;character x pos is the starting param to the next loop&#13;</text>
</g>
<!-- b5&#45;&gt;b6 -->
<g id="edge6" class="edge">
<title>b5&#45;&gt;b6</title>
<path fill="none" stroke="Blue" d="M479.01,-1518.79C478.23,-1512.95 477.5,-1506.77 477,-1501 472.65,-1450.55 470.39,-1394.35 469.22,-1347.4"/>
<polygon fill="Blue" stroke="Blue" points="472.71,-1347.14 468.98,-1337.22 465.71,-1347.3 472.71,-1347.14"/>
<text text-anchor="middle" x="492.5" y="-1440.8" font-family="Times,serif" font-size="14.00">x763</text>
</g>
<!-- b7 -->
<g id="node8" class="node">
<title>b7</title>
<polygon fill="none" stroke="black" points="736.5,-1098 95.5,-1098 91.5,-1094 91.5,-955 732.5,-955 736.5,-959 736.5,-1098"/>
<polyline fill="none" stroke="black" points="732.5,-1094 91.5,-1094 "/>
<polyline fill="none" stroke="black" points="732.5,-1094 732.5,-955 "/>
<polyline fill="none" stroke="black" points="732.5,-1094 736.5,-1098 "/>
<text text-anchor="middle" x="414" y="-1082.8" font-family="Times,serif" font-size="14.00">b7:print_line(8w)</text>
<text text-anchor="middle" x="414" y="-1067.8" font-family="Times,serif" font-size="14.00">@0o0102(print_line): CA 0o0000(w0000) ;clear AC&#13;</text>
<text text-anchor="middle" x="414" y="-1052.8" font-family="Times,serif" font-size="14.00">@0o0103 &#160;&#160;&#160;: TS 0o0510(u0510) ;initialize this var to zero before starting the inner loop&#13;</text>
<text text-anchor="middle" x="414" y="-1037.8" font-family="Times,serif" font-size="14.00">@0o0104 &#160;&#160;&#160;: CA 0o0507(chr_xpos) ;fetch the last chr_xpos&#13;</text>
<text text-anchor="middle" x="414" y="-1022.8" font-family="Times,serif" font-size="14.00">@0o0105 &#160;&#160;&#160;: SU 0o0205(x_chr_spacing) ;subtract constant 0o010000, i.e., move 0o010000 screen units left&#13;</text>
<text text-anchor="middle" x="414" y="-1007.8" font-family="Times,serif" font-size="14.00">@0o0106 &#160;&#160;&#160;: TS 0o0507(chr_xpos) ;store the new x base address for the character&#13;</text>
<text text-anchor="middle" x="414" y="-992.8" font-family="Times,serif" font-size="14.00">@0o0107 &#160;&#160;&#160;: CA 0o0501(chr_cnt) ;check the count of remaining characters&#13;</text>
<text text-anchor="middle" x="414" y="-977.8" font-family="Times,serif" font-size="14.00">@0o0110 &#160;&#160;&#160;: SU 0o0000(w0000) ;subtract +zero&#13;</text>
<text text-anchor="middle" x="414" y="-962.8" font-family="Times,serif" font-size="14.00">@0o0111 &#160;&#160;&#160;: CP 0o0173(nxt_line) ;conditional program&#13;</text>
</g>
<!-- b6&#45;&gt;b7 -->
<g id="edge7" class="edge">
<title>b6&#45;&gt;b7</title>
<path fill="none" stroke="Blue" d="M444.55,-1148.85C441.15,-1135.34 437.67,-1121.52 434.34,-1108.28"/>
<polygon fill="Blue" stroke="Blue" points="437.65,-1107.12 431.82,-1098.28 430.86,-1108.83 437.65,-1107.12"/>
<text text-anchor="middle" x="459" y="-1119.8" font-family="Times,serif" font-size="14.00">x1018</text>
</g>
<!-- b8 -->
<g id="node9" class="node">
<title>b8</title>
<polygon fill="none" stroke="black" points="743,-904 63,-904 59,-900 59,-701 739,-701 743,-705 743,-904"/>
<polyline fill="none" stroke="black" points="739,-900 59,-900 "/>
<polyline fill="none" stroke="black" points="739,-900 739,-701 "/>
<polyline fill="none" stroke="black" points="739,-900 743,-904 "/>
<text text-anchor="middle" x="401" y="-888.8" font-family="Times,serif" font-size="14.00">b8:start the calc to find next char (u0500 is always 0o050000 or 0o040000)(12w)</text>
<text text-anchor="middle" x="401" y="-873.8" font-family="Times,serif" font-size="14.00">@0o0112(calc_char): DV 0o0500(u0500) ;&#13;</text>
<text text-anchor="middle" x="401" y="-858.8" font-family="Times,serif" font-size="14.00">@0o0113 &#160;&#160;&#160;: SL 0o0017 &#160;&#160;&#160;&#160;;shift left and roundoff&#13;</text>
<text text-anchor="middle" x="401" y="-843.8" font-family="Times,serif" font-size="14.00">@0o0114(w0114): SR 0o1002 &#160;&#160;&#160;&#160;;shift right and hold, i.e., divide by two&#13;</text>
<text text-anchor="middle" x="401" y="-828.8" font-family="Times,serif" font-size="14.00">@0o0115 &#160;&#160;&#160;: TS 0o0502(u0502) ;save the result&#13;</text>
<text text-anchor="middle" x="401" y="-813.8" font-family="Times,serif" font-size="14.00">@0o0116 &#160;&#160;&#160;: MH 0o0500(u0500) ;multiply and hold&#13;</text>
<text text-anchor="middle" x="401" y="-798.8" font-family="Times,serif" font-size="14.00">@0o0117(w0117): SL 0o1002 &#160;&#160;&#160;&#160;;This shift is the reverse of the one in w0114&#13;</text>
<text text-anchor="middle" x="401" y="-783.8" font-family="Times,serif" font-size="14.00">@0o0120 &#160;&#160;&#160;: EX 0o0502(u0502) ;exchange&#13;</text>
<text text-anchor="middle" x="401" y="-768.8" font-family="Times,serif" font-size="14.00">@0o0121 &#160;&#160;&#160;: EX 0o0501(chr_cnt) ;exchange&#13;</text>
<text text-anchor="middle" x="401" y="-753.8" font-family="Times,serif" font-size="14.00">@0o0122 &#160;&#160;&#160;: SU 0o0502(u0502) ;subtract x from AC, i.e. the AC figured two&#45;instructions&#45;ago from the current AC&#13;</text>
<text text-anchor="middle" x="401" y="-738.8" font-family="Times,serif" font-size="14.00">@0o0123 &#160;&#160;&#160;: AD 0o0206(chr_tab) ;add the start address of the character table&#13;</text>
<text text-anchor="middle" x="401" y="-723.8" font-family="Times,serif" font-size="14.00">@0o0124 &#160;&#160;&#160;: TD 0o0125(w0125) ;transfer digits&#13;</text>
<text text-anchor="middle" x="401" y="-708.8" font-family="Times,serif" font-size="14.00">@0o0125(w0125): CA 0o0213(chr_0) ;load next char to draw into AC&#13;</text>
</g>
<!-- b7&#45;&gt;b8 -->
<g id="edge8" class="edge">
<title>b7&#45;&gt;b8</title>
<path fill="none" stroke="Blue" d="M409.87,-954.95C409.11,-941.98 408.3,-928.15 407.49,-914.32"/>
<polygon fill="Blue" stroke="Blue" points="410.98,-914.05 406.9,-904.27 403.99,-914.46 410.98,-914.05"/>
<text text-anchor="middle" x="428" y="-925.8" font-family="Times,serif" font-size="14.00">x2292</text>
</g>
<!-- b19 -->
<g id="node20" class="node">
<title>b19</title>
<polygon fill="none" stroke="black" points="1074.5,-836.5 765.5,-836.5 761.5,-832.5 761.5,-768.5 1070.5,-768.5 1074.5,-772.5 1074.5,-836.5"/>
<polyline fill="none" stroke="black" points="1070.5,-832.5 761.5,-832.5 "/>
<polyline fill="none" stroke="black" points="1070.5,-832.5 1070.5,-768.5 "/>
<polyline fill="none" stroke="black" points="1070.5,-832.5 1074.5,-836.5 "/>
<text text-anchor="middle" x="918" y="-821.3" font-family="Times,serif" font-size="14.00">b19:advance y_pos to next line(3w)</text>
<text text-anchor="middle" x="918" y="-806.3" font-family="Times,serif" font-size="14.00">@0o0173(nxt_line): CA 0o0506(chr_ypos) ;&#13;</text>
<text text-anchor="middle" x="918" y="-791.3" font-family="Times,serif" font-size="14.00">@0o0174 &#160;&#160;&#160;: SU 0o0204(y_line_spacing) ;subtract&#13;</text>
<text text-anchor="middle" x="918" y="-776.3" font-family="Times,serif" font-size="14.00">@0o0175 &#160;&#160;&#160;: SP 0o0061(i0061) ;sub&#45;program&#13;</text>
</g>
<!-- b7&#45;&gt;b19 -->
<g id="edge9" class="edge">
<title>b7&#45;&gt;b19</title>
<path fill="none" stroke="Blue" d="M630.75,-954.85C671.62,-939.49 713.58,-922.31 752,-904 789.53,-886.11 829.45,-862.12 860.73,-842.06"/>
<polygon fill="Blue" stroke="Blue" points="862.82,-844.88 869.32,-836.52 859.02,-839 862.82,-844.88"/>
<text text-anchor="middle" x="727" y="-925.8" font-family="Times,serif" font-size="14.00">x1017</text>
</g>
<!-- b9 -->
<g id="node10" class="node">
<title>b9</title>
<polygon fill="none" stroke="Green" points="808,-650 60,-650 56,-646 56,-357 804,-357 808,-361 808,-650"/>
<polyline fill="none" stroke="Green" points="804,-646 56,-646 "/>
<polyline fill="none" stroke="Green" points="804,-646 804,-357 "/>
<polyline fill="none" stroke="Green" points="804,-646 808,-650 "/>
<text text-anchor="middle" x="432" y="-634.8" font-family="Times,serif" font-size="14.00">b9:draw_chr_End(18w)</text>
<text text-anchor="middle" x="432" y="-619.8" font-family="Times,serif" font-size="14.00">@0o0126(draw_chr): SF 0o0207(w0207) ;scale factor&#13;</text>
<text text-anchor="middle" x="432" y="-604.8" font-family="Times,serif" font-size="14.00">@0o0127 &#160;&#160;&#160;: SU 0o0210(r0210) ;subtract a constant: ts &#160;w0000 = .word 0o040000, eliminating Bit 1 (first bit after the sign bit)&#13;</text>
<text text-anchor="middle" x="432" y="-589.8" font-family="Times,serif" font-size="14.00">@0o0130 &#160;&#160;&#160;: TS 0o0511(u0511) ;... and store the remaining bits in &#160;u0511&#13;</text>
<text text-anchor="middle" x="432" y="-574.8" font-family="Times,serif" font-size="14.00">@0o0131 &#160;&#160;&#160;: CA 0o0207(w0207) ;Fetch the shift&#45;count again, i.e., a small number from 0&#45;31&#13;</text>
<text text-anchor="middle" x="432" y="-559.8" font-family="Times,serif" font-size="14.00">@0o0132 &#160;&#160;&#160;: AD 0o0510(u0510) ;initialized to zero just before starting the inner loop, adjusted once per pass of this inner loop&#13;</text>
<text text-anchor="middle" x="432" y="-544.8" font-family="Times,serif" font-size="14.00">@0o0133 &#160;&#160;&#160;: TS 0o0510(u0510) ;store whatever was in u0510 plus the shift count&#13;</text>
<text text-anchor="middle" x="432" y="-529.8" font-family="Times,serif" font-size="14.00">@0o0134 &#160;&#160;&#160;: MH 0o0211(r0211) ;multiply and hold &#45;&#45; constant .word=0o025253 (binary 0 010 101 010 101 011&#13;</text>
<text text-anchor="middle" x="432" y="-514.8" font-family="Times,serif" font-size="14.00">@0o0135 &#160;&#160;&#160;: TS 0o0512(u0512) ;store an intermediate result in computing the Y position&#13;</text>
<text text-anchor="middle" x="432" y="-499.8" font-family="Times,serif" font-size="14.00">@0o0136 &#160;&#160;&#160;: MH 0o0212(r0212) ;multiply and hold by constant .word=0o177774&#13;</text>
<text text-anchor="middle" x="432" y="-484.8" font-family="Times,serif" font-size="14.00">@0o0137 &#160;&#160;&#160;: SL 0o1017 &#160;&#160;&#160;&#160;;shift left and hold&#13;</text>
<text text-anchor="middle" x="432" y="-469.8" font-family="Times,serif" font-size="14.00">@0o0140 &#160;&#160;&#160;: AD 0o0510(u0510) ;add&#13;</text>
<text text-anchor="middle" x="432" y="-454.8" font-family="Times,serif" font-size="14.00">@0o0141 &#160;&#160;&#160;: SL 0o0012 &#160;&#160;&#160;&#160;;shift left 10 places to make a screen address&#13;</text>
<text text-anchor="middle" x="432" y="-439.8" font-family="Times,serif" font-size="14.00">@0o0142 &#160;&#160;&#160;: AD 0o0507(chr_xpos) ;add the character&#39;s base xpos&#13;</text>
<text text-anchor="middle" x="432" y="-424.8" font-family="Times,serif" font-size="14.00">@0o0143 &#160;&#160;&#160;: TS 0o0276(dot_xpos) ;Store the xpos for the next dot&#13;</text>
<text text-anchor="middle" x="432" y="-409.8" font-family="Times,serif" font-size="14.00">@0o0144 &#160;&#160;&#160;: CA 0o0512(u0512) ;Clear and add&#13;</text>
<text text-anchor="middle" x="432" y="-394.8" font-family="Times,serif" font-size="14.00">@0o0145 &#160;&#160;&#160;: SL 0o0012 &#160;&#160;&#160;&#160;;shift left 10 places to make a screen address&#13;</text>
<text text-anchor="middle" x="432" y="-379.8" font-family="Times,serif" font-size="14.00">@0o0146 &#160;&#160;&#160;: AD 0o0506(chr_ypos) ;add the character&#39;s base ypos to make ypos&#13;</text>
<text text-anchor="middle" x="432" y="-364.8" font-family="Times,serif" font-size="14.00">@0o0147 &#160;&#160;&#160;: SP 0o0300(do_dot) ;call the routine to display a dot on the screen&#13;</text>
</g>
<!-- b8&#45;&gt;b9 -->
<g id="edge10" class="edge">
<title>b8&#45;&gt;b9</title>
<path fill="none" stroke="Blue" d="M411.5,-700.95C412.87,-687.75 414.31,-673.98 415.76,-660.12"/>
<polygon fill="Blue" stroke="Blue" points="419.25,-660.34 416.81,-650.03 412.29,-659.61 419.25,-660.34"/>
<text text-anchor="middle" x="434" y="-671.8" font-family="Times,serif" font-size="14.00">x2292</text>
</g>
<!-- b22 -->
<g id="node23" class="node">
<title>b22</title>
<polygon fill="none" stroke="Green" points="542,-306 32,-306 28,-302 28,-193 538,-193 542,-197 542,-306"/>
<polyline fill="none" stroke="Green" points="538,-302 28,-302 "/>
<polyline fill="none" stroke="Green" points="538,-302 538,-193 "/>
<polyline fill="none" stroke="Green" points="538,-302 542,-306 "/>
<text text-anchor="middle" x="285" y="-290.8" font-family="Times,serif" font-size="14.00">b22:save the AC(6w)</text>
<text text-anchor="middle" x="285" y="-275.8" font-family="Times,serif" font-size="14.00">@0o0300(do_dot): TS 0o0277(acctmp) ;&#13;</text>
<text text-anchor="middle" x="285" y="-260.8" font-family="Times,serif" font-size="14.00">@0o0301 &#160;&#160;&#160;: SI 0o0600(u0600) ;select I/O: Device Display Points base=500, mask=7&#13;</text>
<text text-anchor="middle" x="285" y="-245.8" font-family="Times,serif" font-size="14.00">@0o0302 &#160;&#160;&#160;: CA 0o0276(dot_xpos) ;clear and add&#13;</text>
<text text-anchor="middle" x="285" y="-230.8" font-family="Times,serif" font-size="14.00">@0o0303 &#160;&#160;&#160;: RC 0o0000(w0000) ;record&#13;</text>
<text text-anchor="middle" x="285" y="-215.8" font-family="Times,serif" font-size="14.00">@0o0304 &#160;&#160;&#160;: CA 0o0277(acctmp) ;clear and add&#13;</text>
<text text-anchor="middle" x="285" y="-200.8" font-family="Times,serif" font-size="14.00">@0o0305 &#160;&#160;&#160;: SP 0o0150(i0150) ;return to the only caller&#13;</text>
</g>
<!-- b9&#45;&gt;b22 -->
<g id="edge11" class="edge">
<title>b9&#45;&gt;b22</title>
<path fill="none" stroke="Red" d="M346.92,-356.64C338.45,-342.14 330.2,-327.99 322.63,-315"/>
<polygon fill="Red" stroke="Red" points="325.56,-313.08 317.5,-306.21 319.51,-316.61 325.56,-313.08"/>
<text text-anchor="middle" x="356" y="-327.8" font-family="Times,serif" font-size="14.00">x21068</text>
</g>
<!-- b10 -->
<g id="node11" class="node">
<title>b10</title>
<polygon fill="none" stroke="black" points="488.5,-142 85.5,-142 81.5,-138 81.5,-89 484.5,-89 488.5,-93 488.5,-142"/>
<polyline fill="none" stroke="black" points="484.5,-138 81.5,-138 "/>
<polyline fill="none" stroke="black" points="484.5,-138 484.5,-89 "/>
<polyline fill="none" stroke="black" points="484.5,-138 488.5,-142 "/>
<text text-anchor="middle" x="285" y="-126.8" font-family="Times,serif" font-size="14.00">b10:recover the remaining bits(2w)</text>
<text text-anchor="middle" x="285" y="-111.8" font-family="Times,serif" font-size="14.00">@0o0150(i0150): CA 0o0511(u0511) ;&#13;</text>
<text text-anchor="middle" x="285" y="-96.8" font-family="Times,serif" font-size="14.00">@0o0151 &#160;&#160;&#160;: CP 0o0102(print_line) ;.. and exit the loop if negative&#13;</text>
</g>
<!-- b10&#45;&gt;b7 -->
<g id="edge13" class="edge">
<title>b10&#45;&gt;b7</title>
<path fill="none" stroke="Blue" d="M99.28,-142.09C45.02,-160.79 0,-193.02 0,-248.5 0,-803.5 0,-803.5 0,-803.5 0,-870.41 42.52,-917.23 100.3,-949.97"/>
<polygon fill="Blue" stroke="Blue" points="98.86,-953.18 109.32,-954.9 102.22,-947.03 98.86,-953.18"/>
<text text-anchor="middle" x="19" y="-499.8" font-family="Times,serif" font-size="14.00">x2291</text>
</g>
<!-- b11 -->
<g id="node12" class="node">
<title>b11</title>
<polygon fill="none" stroke="black" points="543.5,-38 314.5,-38 310.5,-34 310.5,0 539.5,0 543.5,-4 543.5,-38"/>
<polyline fill="none" stroke="black" points="539.5,-34 310.5,-34 "/>
<polyline fill="none" stroke="black" points="539.5,-34 539.5,0 "/>
<polyline fill="none" stroke="black" points="539.5,-34 543.5,-38 "/>
<text text-anchor="middle" x="427" y="-22.8" font-family="Times,serif" font-size="14.00">b11:sub&#45;program(1w)</text>
<text text-anchor="middle" x="427" y="-7.8" font-family="Times,serif" font-size="14.00">@0o0152 &#160;&#160;&#160;: SP 0o0126(draw_chr) ;&#13;</text>
</g>
<!-- b10&#45;&gt;b11 -->
<g id="edge12" class="edge">
<title>b10&#45;&gt;b11</title>
<path fill="none" stroke="Blue" d="M323.43,-88.93C344.56,-74.87 370.6,-57.53 391.29,-43.77"/>
<polygon fill="Blue" stroke="Blue" points="393.41,-46.56 399.79,-38.11 389.53,-40.73 393.41,-46.56"/>
<text text-anchor="middle" x="396" y="-59.8" font-family="Times,serif" font-size="14.00">x18777</text>
</g>
<!-- b11&#45;&gt;b9 -->
<g id="edge14" class="edge">
<title>b11&#45;&gt;b9</title>
<path fill="none" stroke="Blue" d="M448.67,-38.1C463.49,-51.21 482.92,-69.91 497,-89 527.93,-130.91 538.65,-142.4 551,-193 562.91,-241.79 564.51,-257.63 551,-306 547.12,-319.89 541.97,-333.77 535.97,-347.38"/>
<polygon fill="Blue" stroke="Blue" points="532.66,-346.2 531.69,-356.75 539.03,-349.11 532.66,-346.2"/>
<text text-anchor="middle" x="569" y="-163.8" font-family="Times,serif" font-size="14.00">x18777</text>
</g>
<!-- b12 -->
<g id="node13" class="node">
<title>b12</title>
<polygon fill="none" stroke="black" points="1272.5,-1478.5 945.5,-1478.5 941.5,-1474.5 941.5,-1410.5 1268.5,-1410.5 1272.5,-1414.5 1272.5,-1478.5"/>
<polyline fill="none" stroke="black" points="1268.5,-1474.5 941.5,-1474.5 "/>
<polyline fill="none" stroke="black" points="1268.5,-1474.5 1268.5,-1410.5 "/>
<polyline fill="none" stroke="black" points="1268.5,-1474.5 1272.5,-1478.5 "/>
<text text-anchor="middle" x="1107" y="-1463.3" font-family="Times,serif" font-size="14.00">b12:exchange(3w)</text>
<text text-anchor="middle" x="1107" y="-1448.3" font-family="Times,serif" font-size="14.00">@0o0153(i0153): EX 0o0600(u0600) ;&#13;</text>
<text text-anchor="middle" x="1107" y="-1433.3" font-family="Times,serif" font-size="14.00">@0o0154 &#160;&#160;&#160;: EX 0o0600(u0600) ;exchange&#13;</text>
<text text-anchor="middle" x="1107" y="-1418.3" font-family="Times,serif" font-size="14.00">@0o0155 &#160;&#160;&#160;: CP 0o0157(i0157) ;conditional program&#13;</text>
</g>
<!-- b13 -->
<g id="node14" class="node">
<title>b13</title>
<polygon fill="none" stroke="black" points="1196,-1262 970,-1262 966,-1258 966,-1224 1192,-1224 1196,-1228 1196,-1262"/>
<polyline fill="none" stroke="black" points="1192,-1258 966,-1258 "/>
<polyline fill="none" stroke="black" points="1192,-1258 1192,-1224 "/>
<polyline fill="none" stroke="black" points="1192,-1258 1196,-1262 "/>
<text text-anchor="middle" x="1081" y="-1246.8" font-family="Times,serif" font-size="14.00">b13:0o156(1w)</text>
<text text-anchor="middle" x="1081" y="-1231.8" font-family="Times,serif" font-size="14.00">@0o0156 &#160;&#160;&#160;: SP 0o0056(i0056) ;n/c&#13;</text>
</g>
<!-- b12&#45;&gt;b13 -->
<g id="edge16" class="edge">
<title>b12&#45;&gt;b13</title>
<path fill="none" stroke="Black" stroke-dasharray="5,2" d="M1102.65,-1410.11C1097.63,-1371.61 1089.47,-1308.97 1084.73,-1272.61"/>
<polygon fill="Black" stroke="Black" points="1088.14,-1271.69 1083.38,-1262.23 1081.2,-1272.6 1088.14,-1271.69"/>
<text text-anchor="middle" x="1105" y="-1358.8" font-family="Times,serif" font-size="14.00">x0</text>
</g>
<!-- b14 -->
<g id="node15" class="node">
<title>b14</title>
<polygon fill="none" stroke="black" points="1545.5,-1269.5 1218.5,-1269.5 1214.5,-1265.5 1214.5,-1216.5 1541.5,-1216.5 1545.5,-1220.5 1545.5,-1269.5"/>
<polyline fill="none" stroke="black" points="1541.5,-1265.5 1214.5,-1265.5 "/>
<polyline fill="none" stroke="black" points="1541.5,-1265.5 1541.5,-1216.5 "/>
<polyline fill="none" stroke="black" points="1541.5,-1265.5 1545.5,-1269.5 "/>
<text text-anchor="middle" x="1380" y="-1254.3" font-family="Times,serif" font-size="14.00">b14:add one(2w)</text>
<text text-anchor="middle" x="1380" y="-1239.3" font-family="Times,serif" font-size="14.00">@0o0157(i0157): AO 0o0504(u0504) ;&#13;</text>
<text text-anchor="middle" x="1380" y="-1224.3" font-family="Times,serif" font-size="14.00">@0o0160 &#160;&#160;&#160;: CP 0o0056(i0056) ;conditional program&#13;</text>
</g>
<!-- b12&#45;&gt;b14 -->
<g id="edge15" class="edge">
<title>b12&#45;&gt;b14</title>
<path fill="none" stroke="Black" d="M1152.39,-1410.33C1203.66,-1372.86 1286.5,-1312.33 1336.84,-1275.54"/>
<polygon fill="Black" stroke="Black" points="1338.92,-1278.35 1344.93,-1269.63 1334.79,-1272.7 1338.92,-1278.35"/>
<text text-anchor="middle" x="1242.5" y="-1358.8" font-family="Times,serif" font-size="14.00">x254</text>
</g>
<!-- b13&#45;&gt;b3 -->
<g id="edge17" class="edge">
<title>b13&#45;&gt;b3</title>
<path fill="none" stroke="Black" stroke-dasharray="5,2" d="M1104.71,-1262.18C1129.67,-1281.18 1170.22,-1311.71 1206,-1337 1239.22,-1360.48 1257.23,-1355.74 1282,-1388 1297.88,-1408.68 1301,-1417.43 1301,-1443.5 1301,-1736.5 1301,-1736.5 1301,-1736.5 1301,-1764.73 1310.44,-1794.92 1320.15,-1818.49"/>
<polygon fill="Black" stroke="Black" points="1317,-1820.03 1324.15,-1827.84 1323.43,-1817.27 1317,-1820.03"/>
<text text-anchor="middle" x="1309" y="-1612.8" font-family="Times,serif" font-size="14.00">x0</text>
</g>
<!-- b14&#45;&gt;b3 -->
<g id="edge18" class="edge">
<title>b14&#45;&gt;b3</title>
<path fill="none" stroke="Black" d="M1380,-1269.51C1380,-1307.45 1380,-1380.98 1380,-1443.5 1380,-1736.5 1380,-1736.5 1380,-1736.5 1380,-1764.67 1370.8,-1794.85 1361.33,-1818.44"/>
<polygon fill="Black" stroke="Black" points="1358.05,-1817.22 1357.43,-1827.8 1364.51,-1819.92 1358.05,-1817.22"/>
<text text-anchor="middle" x="1395.5" y="-1612.8" font-family="Times,serif" font-size="14.00">x253</text>
</g>
<!-- b15 -->
<g id="node16" class="node">
<title>b15</title>
<polygon fill="none" stroke="black" points="1545.5,-1075.5 1218.5,-1075.5 1214.5,-1071.5 1214.5,-977.5 1541.5,-977.5 1545.5,-981.5 1545.5,-1075.5"/>
<polyline fill="none" stroke="black" points="1541.5,-1071.5 1214.5,-1071.5 "/>
<polyline fill="none" stroke="black" points="1541.5,-1071.5 1541.5,-977.5 "/>
<polyline fill="none" stroke="black" points="1541.5,-1071.5 1545.5,-1075.5 "/>
<text text-anchor="middle" x="1380" y="-1060.3" font-family="Times,serif" font-size="14.00">b15:add one(5w)</text>
<text text-anchor="middle" x="1380" y="-1045.3" font-family="Times,serif" font-size="14.00">@0o0161 &#160;&#160;&#160;: AO 0o0002(i0002) ;&#13;</text>
<text text-anchor="middle" x="1380" y="-1030.3" font-family="Times,serif" font-size="14.00">@0o0162 &#160;&#160;&#160;: CS 0o0000(w0000) ;clear and subtract&#13;</text>
<text text-anchor="middle" x="1380" y="-1015.3" font-family="Times,serif" font-size="14.00">@0o0163 &#160;&#160;&#160;: EX 0o0601(u0601) ;exchange&#13;</text>
<text text-anchor="middle" x="1380" y="-1000.3" font-family="Times,serif" font-size="14.00">@0o0164 &#160;&#160;&#160;: EX 0o0601(u0601) ;exchange&#13;</text>
<text text-anchor="middle" x="1380" y="-985.3" font-family="Times,serif" font-size="14.00">@0o0165 &#160;&#160;&#160;: CP 0o0167(i0167) ;conditional program&#13;</text>
</g>
<!-- b14&#45;&gt;b15 -->
<g id="edge19" class="edge">
<title>b14&#45;&gt;b15</title>
<path fill="none" stroke="Black" d="M1380,-1216.13C1380,-1184.11 1380,-1128.63 1380,-1086.1"/>
<polygon fill="Black" stroke="Black" points="1383.5,-1085.86 1380,-1075.86 1376.5,-1085.86 1383.5,-1085.86"/>
<text text-anchor="middle" x="1388" y="-1119.8" font-family="Times,serif" font-size="14.00">x1</text>
</g>
<!-- b16 -->
<g id="node17" class="node">
<title>b16</title>
<polygon fill="none" stroke="black" points="1489,-821.5 1263,-821.5 1259,-817.5 1259,-783.5 1485,-783.5 1489,-787.5 1489,-821.5"/>
<polyline fill="none" stroke="black" points="1485,-817.5 1259,-817.5 "/>
<polyline fill="none" stroke="black" points="1485,-817.5 1485,-783.5 "/>
<polyline fill="none" stroke="black" points="1485,-817.5 1489,-821.5 "/>
<text text-anchor="middle" x="1374" y="-806.3" font-family="Times,serif" font-size="14.00">b16:0o166(1w)</text>
<text text-anchor="middle" x="1374" y="-791.3" font-family="Times,serif" font-size="14.00">@0o0166 &#160;&#160;&#160;: SP 0o0054(i0054) ;n/c&#13;</text>
</g>
<!-- b15&#45;&gt;b16 -->
<g id="edge21" class="edge">
<title>b15&#45;&gt;b16</title>
<path fill="none" stroke="Black" stroke-dasharray="5,2" d="M1378.7,-977.33C1377.5,-933.07 1375.77,-868.93 1374.78,-832.21"/>
<polygon fill="Black" stroke="Black" points="1378.26,-831.64 1374.49,-821.74 1371.26,-831.83 1378.26,-831.64"/>
<text text-anchor="middle" x="1385" y="-925.8" font-family="Times,serif" font-size="14.00">x0</text>
</g>
<!-- b17 -->
<g id="node18" class="node">
<title>b17</title>
<polygon fill="none" stroke="black" points="1838.5,-829 1511.5,-829 1507.5,-825 1507.5,-776 1834.5,-776 1838.5,-780 1838.5,-829"/>
<polyline fill="none" stroke="black" points="1834.5,-825 1507.5,-825 "/>
<polyline fill="none" stroke="black" points="1834.5,-825 1834.5,-776 "/>
<polyline fill="none" stroke="black" points="1834.5,-825 1838.5,-829 "/>
<text text-anchor="middle" x="1673" y="-813.8" font-family="Times,serif" font-size="14.00">b17:add one(2w)</text>
<text text-anchor="middle" x="1673" y="-798.8" font-family="Times,serif" font-size="14.00">@0o0167(i0167): AO 0o0505(u0505) ;&#13;</text>
<text text-anchor="middle" x="1673" y="-783.8" font-family="Times,serif" font-size="14.00">@0o0170 &#160;&#160;&#160;: CP 0o0054(i0054) ;conditional program&#13;</text>
</g>
<!-- b15&#45;&gt;b17 -->
<g id="edge20" class="edge">
<title>b15&#45;&gt;b17</title>
<path fill="none" stroke="Black" d="M1443.58,-977.33C1500.38,-934.29 1581.97,-872.47 1631,-835.32"/>
<polygon fill="Black" stroke="Black" points="1633.32,-837.96 1639.17,-829.13 1629.09,-832.38 1633.32,-837.96"/>
<text text-anchor="middle" x="1516" y="-925.8" font-family="Times,serif" font-size="14.00">x1</text>
</g>
<!-- b16&#45;&gt;b2 -->
<g id="edge22" class="edge">
<title>b16&#45;&gt;b2</title>
<path fill="none" stroke="Black" stroke-dasharray="5,2" d="M1396.46,-821.7C1443.72,-860.06 1549.53,-946.43 1555,-955 1572.47,-982.35 1574,-993.05 1574,-1025.5 1574,-1863 1574,-1863 1574,-1863 1574,-1887.56 1574,-1915.21 1574,-1936.59"/>
<polygon fill="Black" stroke="Black" points="1570.5,-1936.84 1574,-1946.84 1577.5,-1936.84 1570.5,-1936.84"/>
<text text-anchor="middle" x="1582" y="-1541.8" font-family="Times,serif" font-size="14.00">x0</text>
</g>
<!-- b17&#45;&gt;b2 -->
<g id="edge23" class="edge">
<title>b17&#45;&gt;b2</title>
<path fill="none" stroke="Black" d="M1672.05,-829.13C1670.6,-870.46 1668,-954.37 1668,-1025.5 1668,-1863 1668,-1863 1668,-1863 1668,-1894.26 1645.66,-1921.07 1622.77,-1940.33"/>
<polygon fill="Black" stroke="Black" points="1620.29,-1937.83 1614.68,-1946.82 1624.67,-1943.29 1620.29,-1937.83"/>
<text text-anchor="middle" x="1676" y="-1541.8" font-family="Times,serif" font-size="14.00">x1</text>
</g>
<!-- b18 -->
<g id="node19" class="node">
<title>b18</title>
<polygon fill="none" stroke="black" points="1789.5,-522.5 1560.5,-522.5 1556.5,-518.5 1556.5,-484.5 1785.5,-484.5 1789.5,-488.5 1789.5,-522.5"/>
<polyline fill="none" stroke="black" points="1785.5,-518.5 1556.5,-518.5 "/>
<polyline fill="none" stroke="black" points="1785.5,-518.5 1785.5,-484.5 "/>
<polyline fill="none" stroke="black" points="1785.5,-518.5 1789.5,-522.5 "/>
<text text-anchor="middle" x="1673" y="-507.3" font-family="Times,serif" font-size="14.00">b18:0o171(&#45;120w)</text>
<text text-anchor="middle" x="1673" y="-492.3" font-family="Times,serif" font-size="14.00">@0o0171 &#160;&#160;&#160;: SI 0o0000(w0000) ;n/c&#13;</text>
</g>
<!-- b17&#45;&gt;b18 -->
<g id="edge24" class="edge">
<title>b17&#45;&gt;b18</title>
<path fill="none" stroke="Black" stroke-dasharray="5,2" d="M1673,-775.92C1673,-720.67 1673,-590.51 1673,-532.85"/>
<polygon fill="Black" stroke="Black" points="1676.5,-532.64 1673,-522.64 1669.5,-532.64 1676.5,-532.64"/>
<text text-anchor="middle" x="1681" y="-671.8" font-family="Times,serif" font-size="14.00">x0</text>
</g>
<!-- b19&#45;&gt;b4 -->
<g id="edge25" class="edge">
<title>b19&#45;&gt;b4</title>
<path fill="none" stroke="Blue" d="M916.79,-836.59C915.31,-879.97 913,-958.42 913,-1025.5 913,-1617.5 913,-1617.5 913,-1617.5 913,-1639.56 909.01,-1663.53 904.36,-1683.99"/>
<polygon fill="Blue" stroke="Blue" points="900.95,-1683.19 902.04,-1693.73 907.76,-1684.82 900.95,-1683.19"/>
<text text-anchor="middle" x="932" y="-1358.8" font-family="Times,serif" font-size="14.00">x1017</text>
</g>
<!-- b20&#45;&gt;b12 -->
<g id="edge27" class="edge">
<title>b20&#45;&gt;b12</title>
<path fill="none" stroke="Black" d="M777.51,-1589.87C842.58,-1561.36 948.26,-1515.05 1022.35,-1482.59"/>
<polygon fill="Black" stroke="Black" points="1023.92,-1485.72 1031.67,-1478.5 1021.11,-1479.31 1023.92,-1485.72"/>
<text text-anchor="middle" x="951.5" y="-1541.8" font-family="Times,serif" font-size="14.00">x254</text>
</g>
<!-- b21 -->
<g id="node22" class="node">
<title>b21</title>
<polygon fill="none" stroke="black" points="885,-1501 521,-1501 517,-1497 517,-1388 881,-1388 885,-1392 885,-1501"/>
<polyline fill="none" stroke="black" points="881,-1497 517,-1497 "/>
<polyline fill="none" stroke="black" points="881,-1497 881,-1388 "/>
<polyline fill="none" stroke="black" points="881,-1497 885,-1501 "/>
<text text-anchor="middle" x="701" y="-1485.8" font-family="Times,serif" font-size="14.00">b21:add(6w)</text>
<text text-anchor="middle" x="701" y="-1470.8" font-family="Times,serif" font-size="14.00">@0o0256 &#160;&#160;&#160;: AD 0o0610(r0610) ;&#13;</text>
<text text-anchor="middle" x="701" y="-1455.8" font-family="Times,serif" font-size="14.00">@0o0257 &#160;&#160;&#160;: DM 0o0000(w0000) ;difference of magnitudes&#13;</text>
<text text-anchor="middle" x="701" y="-1440.8" font-family="Times,serif" font-size="14.00">@0o0260 &#160;&#160;&#160;: TS 0o0503(u0503) ;transfer to storage&#13;</text>
<text text-anchor="middle" x="701" y="-1425.8" font-family="Times,serif" font-size="14.00">@0o0261 &#160;&#160;&#160;: CA 0o0041(r0041) ;clear and add&#13;</text>
<text text-anchor="middle" x="701" y="-1410.8" font-family="Times,serif" font-size="14.00">@0o0262 &#160;&#160;&#160;: CL 0o1033 &#160;&#160;&#160;&#160;;cycle left and hold&#13;</text>
<text text-anchor="middle" x="701" y="-1395.8" font-family="Times,serif" font-size="14.00">@0o0263 &#160;&#160;&#160;: SP 0o0067(i0067) ;sub&#45;program&#13;</text>
</g>
<!-- b20&#45;&gt;b21 -->
<g id="edge26" class="edge">
<title>b20&#45;&gt;b21</title>
<path fill="none" stroke="Blue" d="M716.27,-1589.68C714.06,-1568.83 710.85,-1538.56 707.95,-1511.13"/>
<polygon fill="Blue" stroke="Blue" points="711.43,-1510.75 706.89,-1501.17 704.47,-1511.48 711.43,-1510.75"/>
<text text-anchor="middle" x="730.5" y="-1541.8" font-family="Times,serif" font-size="14.00">x255</text>
</g>
<!-- b21&#45;&gt;b6 -->
<g id="edge28" class="edge">
<title>b21&#45;&gt;b6</title>
<path fill="none" stroke="Blue" d="M636.1,-1387.93C619.95,-1374.11 602.16,-1358.87 584.36,-1343.63"/>
<polygon fill="Blue" stroke="Blue" points="586.62,-1340.95 576.74,-1337.11 582.06,-1346.27 586.62,-1340.95"/>
<text text-anchor="middle" x="628.5" y="-1358.8" font-family="Times,serif" font-size="14.00">x255</text>
</g>
<!-- b22&#45;&gt;b10 -->
<g id="edge29" class="edge">
<title>b22&#45;&gt;b10</title>
<path fill="none" stroke="Red" d="M285,-192.9C285,-179.14 285,-164.76 285,-152.24"/>
<polygon fill="Red" stroke="Red" points="288.5,-152.21 285,-142.21 281.5,-152.21 288.5,-152.21"/>
<text text-anchor="middle" x="308" y="-163.8" font-family="Times,serif" font-size="14.00">x21068</text>
</g>
</g>
</svg>
